<?xml version="1.0" encoding="UTF-8"?>
<!DOCTYPE svg PUBLIC "-//W3C//DTD SVG 1.1//EN" "http://www.w3.org/Graphics/SVG/1.1/DTD/svg11.dtd">
<svg xmlns="http://www.w3.org/2000/svg" version="1.1" width="64px" height="64px" style="shape-rendering:geometricPrecision; text-rendering:geometricPrecision; image-rendering:optimizeQuality; fill-rule:evenodd; clip-rule:evenodd" xmlns:xlink="http://www.w3.org/1999/xlink">
<g><path style="opacity:0.016" fill="#ffab59" d="M 34.5,6.5 C 34.8966,5.47498 35.5632,5.30831 36.5,6C 35.9056,6.46434 35.2389,6.63101 34.5,6.5 Z"/></g>
<g><path style="opacity:0.995" fill="#fca14f" d="M 40.5,6.5 C 41.4584,6.9528 42.2917,7.61947 43,8.5C 46.3128,14.0776 48.6461,19.7442 50,25.5C 50.6667,24.1667 51.3333,24.1667 52,25.5C 54.6436,30.4244 56.8102,35.0911 58.5,39.5C 58.1436,41.1898 57.1436,42.1898 55.5,42.5C 53.7755,39.3755 52.2755,36.0421 51,32.5C 50.0053,31.9341 49.172,31.2674 48.5,30.5C 48.6633,28.1432 48.4966,25.8098 48,23.5C 47.6174,22.944 47.1174,22.6107 46.5,22.5C 46.5,21.8333 46.1667,21.5 45.5,21.5C 45.1583,20.6618 44.4916,20.3284 43.5,20.5C 42.6016,19.8423 41.6016,19.1757 40.5,18.5C 38.977,14.7712 36.977,11.4379 34.5,8.5C 36.2143,7.26162 38.2143,6.59495 40.5,6.5 Z"/></g>
<g><path style="opacity:0.995" fill="#fcb04b" d="M 40.5,6.5 C 42.5,5.16667 44.5,5.16667 46.5,6.5C 46.0618,6.43456 45.7284,6.60123 45.5,7C 50.6577,16.8163 55.6577,26.6497 60.5,36.5C 60.5,37.1667 60.5,37.8333 60.5,38.5C 59.8333,38.8333 59.1667,39.1667 58.5,39.5C 56.8102,35.0911 54.6436,30.4244 52,25.5C 51.3333,24.1667 50.6667,24.1667 50,25.5C 48.6461,19.7442 46.3128,14.0776 43,8.5C 42.2917,7.61947 41.4584,6.9528 40.5,6.5 Z"/></g>
<g><path style="opacity:0.016" fill="#ff8ba8" d="M 17.5,13.5 C 17.8966,12.475 18.5632,12.3083 19.5,13C 18.9056,13.4643 18.2389,13.631 17.5,13.5 Z"/></g>
<g><path style="opacity:0.996" fill="#f16464" d="M 29.5,10.5 C 32.3434,14.1845 34.6767,18.1845 36.5,22.5C 36.5,22.8333 36.5,23.1667 36.5,23.5C 35.5084,23.3284 34.8417,23.6618 34.5,24.5C 33.1667,24.8333 31.8333,25.1667 30.5,25.5C 28.4917,21.1286 26.4917,16.7953 24.5,12.5C 25.9303,11.4625 27.597,10.7959 29.5,10.5 Z"/></g>
<g><path style="opacity:0.992" fill="#fc8859" d="M 34.5,8.5 C 36.977,11.4379 38.977,14.7712 40.5,18.5C 41.6016,19.1757 42.6016,19.8423 43.5,20.5C 42.5084,20.3284 41.8417,20.6618 41.5,21.5C 40.5084,21.3284 39.8417,21.6618 39.5,22.5C 38.5,22.5 37.5,22.5 36.5,22.5C 34.6767,18.1845 32.3434,14.1845 29.5,10.5C 30.9303,9.46253 32.597,8.79586 34.5,8.5 Z"/></g>
<g><path style="opacity:0.016" fill="#ffc02a" d="M 63.5,16.5 C 63.5,17.5 63.5,18.5 63.5,19.5C 63.1667,19.5 62.8333,19.5 62.5,19.5C 62.2627,18.209 62.596,17.209 63.5,16.5 Z"/></g>
<g><path style="opacity:0.996" fill="#dc4575" d="M 24.5,12.5 C 26.4917,16.7953 28.4917,21.1286 30.5,25.5C 27.0887,28.355 24.0887,28.0217 21.5,24.5C 20.9408,21.0567 19.6074,18.0567 17.5,15.5C 19.649,14.2638 21.9823,13.2638 24.5,12.5 Z"/></g>
<g><path style="opacity:0.996" fill="#fac34d" d="M 46.5,6.5 C 54.2407,7.91052 59.574,12.2438 62.5,19.5C 62.2627,20.791 62.596,21.791 63.5,22.5C 63.5,25.1667 63.5,27.8333 63.5,30.5C 62.5655,31.5676 62.2322,32.901 62.5,34.5C 61.6618,34.8417 61.3284,35.5084 61.5,36.5C 61.1667,36.5 60.8333,36.5 60.5,36.5C 55.6577,26.6497 50.6577,16.8163 45.5,7C 45.7284,6.60123 46.0618,6.43456 46.5,6.5 Z"/></g>
<g><path style="opacity:0.027" fill="#ff9543" d="M 41.5,21.5 C 42.8333,21.5 44.1667,21.5 45.5,21.5C 46.1667,21.5 46.5,21.8333 46.5,22.5C 46.1583,23.3382 45.4916,23.6716 44.5,23.5C 43.8333,22.1667 43.1667,22.1667 42.5,23.5C 41.5,23.5 40.5,23.5 39.5,23.5C 39.5,23.1667 39.5,22.8333 39.5,22.5C 40.4916,22.6716 41.1583,22.3382 41.5,21.5 Z"/></g>
<g><path style="opacity:0.996" fill="#9d3f86" d="M 17.5,15.5 C 19.6074,18.0567 20.9408,21.0567 21.5,24.5C 19.0311,25.6067 18.0311,27.6067 18.5,30.5C 17.209,30.2627 16.209,30.596 15.5,31.5C 15.1667,31.5 14.8333,31.5 14.5,31.5C 14.1602,27.8078 12.8269,24.4744 10.5,21.5C 9.67504,20.6143 8.67504,20.281 7.5,20.5C 10.2353,17.7989 13.5686,16.1322 17.5,15.5 Z"/></g>
<g><path style="opacity:0.004" fill="#ff6633" d="M 36.5,23.5 C 37.5,23.5 38.5,23.5 39.5,23.5C 39.5,23.8333 39.5,24.1667 39.5,24.5C 38.5084,24.3284 37.8417,24.6618 37.5,25.5C 36.209,25.7373 35.209,25.404 34.5,24.5C 35.4916,24.6716 36.1583,24.3382 36.5,23.5 Z"/></g>
<g><path style="opacity:0.016" fill="#542c54" d="M 1.5,26.5 C 1.16667,26.5 0.833333,26.5 0.5,26.5C 0.833333,23.8333 1.16667,23.8333 1.5,26.5 Z"/></g>
<g><path style="opacity:0.994" fill="#693b83" d="M 6.5,21.5 C 7.71377,24.9302 9.21377,28.2635 11,31.5C 10.9889,36.1355 11.9889,40.4688 14,44.5C 14.6667,43.1667 15.3333,43.1667 16,44.5C 17.5179,48.9195 19.6845,52.9195 22.5,56.5C 19.4318,56.4533 16.4318,55.9533 13.5,55C 14.3081,54.6924 14.9747,54.1924 15.5,53.5C 12.5312,45.5643 9.03118,37.8976 5,30.5C 4.07542,29.9535 3.24208,29.2868 2.5,28.5C 3.45645,26.9246 4.12312,25.258 4.5,23.5C 4.83333,22.5 5.5,21.8333 6.5,21.5 Z"/></g>
<g><path style="opacity:0.99" fill="#fd9851" d="M 42.5,23.5 C 43.1667,23.5 43.8333,23.5 44.5,23.5C 45.9418,24.8195 46.6085,26.4862 46.5,28.5C 45.8333,28.5 45.5,28.8333 45.5,29.5C 44.5084,29.3284 43.8417,29.6618 43.5,30.5C 42.209,30.2627 41.209,30.596 40.5,31.5C 39.5084,31.3284 38.8417,31.6618 38.5,32.5C 37.5,32.5 36.5,32.5 35.5,32.5C 35.7845,30.5853 35.4511,28.9187 34.5,27.5C 35.5,26.8333 36.5,26.1667 37.5,25.5C 38.4916,25.6716 39.1583,25.3382 39.5,24.5C 40.791,24.7373 41.791,24.404 42.5,23.5 Z"/></g>
<g><path style="opacity:0.016" fill="#a93ca8" d="M -0.5,26.5 C -0.166667,26.5 0.166667,26.5 0.5,26.5C 0.67158,27.4916 0.338246,28.1583 -0.5,28.5C -0.5,27.8333 -0.5,27.1667 -0.5,26.5 Z"/></g>
<g><path style="opacity:0.995" fill="#644084" d="M 4.5,23.5 C 4.12312,25.258 3.45645,26.9246 2.5,28.5C 3.24208,29.2868 4.07542,29.9535 5,30.5C 9.03118,37.8976 12.5312,45.5643 15.5,53.5C 14.9747,54.1924 14.3081,54.6924 13.5,55C 16.4318,55.9533 19.4318,56.4533 22.5,56.5C 23.391,55.8902 24.391,55.5569 25.5,55.5C 26.1667,55.5 26.8333,55.5 27.5,55.5C 27.5,55.8333 27.5,56.1667 27.5,56.5C 26.209,56.2627 25.209,56.596 24.5,57.5C 20.1829,57.9166 16.1829,57.2499 12.5,55.5C 7.66861,47.1885 4.00195,38.5218 1.5,29.5C 1.5,28.5 1.5,27.5 1.5,26.5C 2.27187,25.3065 3.27187,24.3065 4.5,23.5 Z"/></g>
<g><path style="opacity:0.008" fill="#ff643a" d="M 46.5,28.5 C 47.3382,28.8417 47.6716,29.5084 47.5,30.5C 46.8333,30.5 46.5,30.8333 46.5,31.5C 45.5,31.5 44.5,31.5 43.5,31.5C 43.5,31.1667 43.5,30.8333 43.5,30.5C 44.4916,30.6716 45.1583,30.3382 45.5,29.5C 46.1667,29.5 46.5,29.1667 46.5,28.5 Z"/></g>
<g><path style="opacity:0.98" fill="#f46c65" d="M 34.5,27.5 C 35.4511,28.9187 35.7845,30.5853 35.5,32.5C 34.8333,33.1667 34.1667,33.8333 33.5,34.5C 32.5,34.5 31.5,34.5 30.5,34.5C 29.3332,32.9586 27.9999,31.6252 26.5,30.5C 26.0825,29.7784 25.4158,29.2784 24.5,29C 25.8989,28.4054 27.2322,28.5721 28.5,29.5C 30.4496,28.6279 32.4496,27.9612 34.5,27.5 Z"/></g>
<g><path style="opacity:0.012" fill="#984177" d="M 21.5,31.5 C 20.5084,31.3284 19.8417,31.6618 19.5,32.5C 18.209,32.2627 17.209,32.596 16.5,33.5C 15.8333,33.5 15.5,33.8333 15.5,34.5C 14.6618,34.1583 14.3284,33.4916 14.5,32.5C 15.1667,32.5 15.5,32.1667 15.5,31.5C 16.791,31.7373 17.791,31.404 18.5,30.5C 19.2679,29.7375 19.7679,28.7375 20,27.5C 20.4101,28.9007 20.9101,30.234 21.5,31.5 Z"/></g>
<g><path style="opacity:0.012" fill="#ef9e74" d="M 40.5,31.5 C 41.5,31.5 42.5,31.5 43.5,31.5C 43.5,31.8333 43.5,32.1667 43.5,32.5C 42.5084,32.3284 41.8417,32.6618 41.5,33.5C 40.596,34.209 40.2627,35.209 40.5,36.5C 39.6554,35.3285 38.9887,33.9952 38.5,32.5C 39.4916,32.6716 40.1583,32.3382 40.5,31.5 Z"/></g>
<g><path style="opacity:0.992" fill="#634487" d="M 1.5,29.5 C 4.00195,38.5218 7.66861,47.1885 12.5,55.5C 8.27077,53.9358 4.93744,51.2692 2.5,47.5C 2.67158,46.5084 2.33825,45.8417 1.5,45.5C 1.67158,44.5084 1.33825,43.8417 0.5,43.5C 0.767809,41.901 0.434475,40.5676 -0.5,39.5C -0.5,37.5 -0.5,35.5 -0.5,33.5C 0.166667,32.1667 0.833333,30.8333 1.5,29.5 Z"/></g>
<g><path style="opacity:0.995" fill="#fb8757" d="M 47.5,30.5 C 47.8333,30.5 48.1667,30.5 48.5,30.5C 49.172,31.2674 50.0053,31.9341 51,32.5C 52.2755,36.0421 53.7755,39.3755 55.5,42.5C 54.8333,43.5 54.1667,44.5 53.5,45.5C 52.5084,45.3284 51.8417,45.6618 51.5,46.5C 50.8333,46.5 50.1667,46.5 49.5,46.5C 49.5015,41.1826 47.5015,36.8493 43.5,33.5C 43.5,33.1667 43.5,32.8333 43.5,32.5C 44.791,32.7373 45.791,32.404 46.5,31.5C 47.1667,31.5 47.5,31.1667 47.5,30.5 Z"/></g>
<g><path style="opacity:1" fill="#e54f74" d="M 26.5,30.5 C 27.9999,31.6252 29.3332,32.9586 30.5,34.5C 30.5,34.8333 30.5,35.1667 30.5,35.5C 28.4471,35.4021 26.7804,36.0687 25.5,37.5C 24.8333,37.5 24.1667,37.5 23.5,37.5C 23.8799,35.302 23.2132,33.6354 21.5,32.5C 21.5,32.1667 21.5,31.8333 21.5,31.5C 23.2161,31.3713 24.8828,31.038 26.5,30.5 Z"/></g>
<g><path style="opacity:0.994" fill="#bc4384" d="M 19.5,32.5 C 20.1667,32.5 20.8333,32.5 21.5,32.5C 23.2132,33.6354 23.8799,35.302 23.5,37.5C 22.8333,37.5 22.5,37.8333 22.5,38.5C 21.5084,38.3284 20.8417,38.6618 20.5,39.5C 19.1667,39.5 17.8333,39.5 16.5,39.5C 16.5,38.8333 16.1667,38.5 15.5,38.5C 15.5,37.1667 15.5,35.8333 15.5,34.5C 16.1667,34.5 16.5,34.1667 16.5,33.5C 17.791,33.7373 18.791,33.404 19.5,32.5 Z"/></g>
<g><path style="opacity:0.993" fill="#f56d5f" d="M 41.5,33.5 C 42.1667,33.5 42.8333,33.5 43.5,33.5C 47.5015,36.8493 49.5015,41.1826 49.5,46.5C 48.2905,46.9321 47.2905,47.5987 46.5,48.5C 45.5084,48.3284 44.8417,48.6618 44.5,49.5C 44.1667,49.5 43.8333,49.5 43.5,49.5C 43.0795,45.9925 42.0795,42.6592 40.5,39.5C 40.5,38.5 40.5,37.5 40.5,36.5C 41.404,35.791 41.7373,34.791 41.5,33.5 Z"/></g>
<g><path style="opacity:0.012" fill="#ffb14e" d="M 62.5,34.5 C 62.8333,34.5 63.1667,34.5 63.5,34.5C 63.5,35.1667 63.5,35.8333 63.5,36.5C 63.1667,36.5 62.8333,36.5 62.5,36.5C 62.5,35.8333 62.5,35.1667 62.5,34.5 Z"/></g>
<g><path style="opacity:0.008" fill="#ffe25e" d="M 61.5,36.5 C 61.8333,36.5 62.1667,36.5 62.5,36.5C 62.6716,37.4916 62.3382,38.1583 61.5,38.5C 61.5,37.8333 61.5,37.1667 61.5,36.5 Z"/></g>
<g><path style="opacity:0.016" fill="#d74668" d="M 33.5,34.5 C 35.6977,34.4088 36.0311,35.0755 34.5,36.5C 33.209,36.2627 32.209,36.596 31.5,37.5C 30.5084,37.3284 29.8417,37.6618 29.5,38.5C 28.5084,38.3284 27.8417,38.6618 27.5,39.5C 26.209,39.2627 25.209,39.596 24.5,40.5C 24.1667,40.5 23.8333,40.5 23.5,40.5C 23.5,39.8333 23.1667,39.5 22.5,39.5C 22.5,39.1667 22.5,38.8333 22.5,38.5C 23.791,38.7373 24.791,38.404 25.5,37.5C 27.5529,37.5979 29.2196,36.9313 30.5,35.5C 31.791,35.7373 32.791,35.404 33.5,34.5 Z"/></g>
<g><path style="opacity:0.02" fill="#fe9932" d="M 60.5,38.5 C 60.8333,38.5 61.1667,38.5 61.5,38.5C 61.3147,39.1701 60.9813,39.1701 60.5,38.5 Z"/></g>
<g><path style="opacity:0.016" fill="#853e7c" d="M 15.5,38.5 C 16.1667,38.5 16.5,38.8333 16.5,39.5C 17.8333,40.8333 19.1667,40.8333 20.5,39.5C 21.1667,39.5 21.8333,39.5 22.5,39.5C 23.1667,39.5 23.5,39.8333 23.5,40.5C 22.8333,40.5 22.5,40.8333 22.5,41.5C 21.209,41.2627 20.209,41.596 19.5,42.5C 18.2921,41.7659 16.9587,41.4326 15.5,41.5C 15.5,40.8333 15.1667,40.5 14.5,40.5C 14.3284,39.5084 14.6618,38.8417 15.5,38.5 Z"/></g>
<g><path style="opacity:0.996" fill="#dd4875" d="M 34.5,36.5 C 36.5168,37.5294 38.5168,38.5294 40.5,39.5C 42.0795,42.6592 43.0795,45.9925 43.5,49.5C 42.5084,49.3284 41.8417,49.6618 41.5,50.5C 40.5084,50.3284 39.8417,50.6618 39.5,51.5C 38.5,51.5 37.5,51.5 36.5,51.5C 34.6719,47.6807 32.6719,43.8473 30.5,40C 31.056,39.6174 31.3893,39.1174 31.5,38.5C 31.5,38.1667 31.5,37.8333 31.5,37.5C 32.791,37.7373 33.791,37.404 34.5,36.5 Z"/></g>
<g><path style="opacity:0.012" fill="#4d4d9b" d="M -0.5,43.5 C -0.166667,43.5 0.166667,43.5 0.5,43.5C 0.5,44.1667 0.5,44.8333 0.5,45.5C 0.166667,45.5 -0.166667,45.5 -0.5,45.5C -0.5,44.8333 -0.5,44.1667 -0.5,43.5 Z"/></g>
<g><path style="opacity:0.995" fill="#9a3c85" d="M 22.5,41.5 C 23.1667,41.5 23.8333,41.5 24.5,41.5C 27.5126,44.2084 29.8459,47.5417 31.5,51.5C 32.325,52.3857 33.325,52.719 34.5,52.5C 34.5,52.8333 34.5,53.1667 34.5,53.5C 33.5084,53.3284 32.8417,53.6618 32.5,54.5C 31.209,54.2627 30.209,54.596 29.5,55.5C 28.8333,55.5 28.1667,55.5 27.5,55.5C 26.8333,55.5 26.1667,55.5 25.5,55.5C 24.0078,51.1822 22.0078,47.1822 19.5,43.5C 19.5,43.1667 19.5,42.8333 19.5,42.5C 20.791,42.7373 21.791,42.404 22.5,41.5 Z"/></g>
<g><path style="opacity:0.994" fill="#c43d7e" d="M 29.5,38.5 C 30.1667,38.5 30.8333,38.5 31.5,38.5C 31.3893,39.1174 31.056,39.6174 30.5,40C 32.6719,43.8473 34.6719,47.6807 36.5,51.5C 36.5,51.8333 36.5,52.1667 36.5,52.5C 35.8333,52.5 35.1667,52.5 34.5,52.5C 33.325,52.719 32.325,52.3857 31.5,51.5C 29.8459,47.5417 27.5126,44.2084 24.5,41.5C 24.5,41.1667 24.5,40.8333 24.5,40.5C 25.791,40.7373 26.791,40.404 27.5,39.5C 28.4916,39.6716 29.1583,39.3382 29.5,38.5 Z"/></g>
<g><path style="opacity:0.996" fill="#773c85" d="M 7.5,20.5 C 8.67504,20.281 9.67504,20.6143 10.5,21.5C 12.8269,24.4744 14.1602,27.8078 14.5,31.5C 14.5,31.8333 14.5,32.1667 14.5,32.5C 14.5,35.1667 14.5,37.8333 14.5,40.5C 15.1667,40.5 15.5,40.8333 15.5,41.5C 16.5137,42.6737 17.847,43.3404 19.5,43.5C 22.0078,47.1822 24.0078,51.1822 25.5,55.5C 24.391,55.5569 23.391,55.8902 22.5,56.5C 19.6845,52.9195 17.5179,48.9195 16,44.5C 15.3333,43.1667 14.6667,43.1667 14,44.5C 11.9889,40.4688 10.9889,36.1355 11,31.5C 9.21377,28.2635 7.71377,24.9302 6.5,21.5C 6.5,20.8333 6.83333,20.5 7.5,20.5 Z"/></g>
<g><path style="opacity:0.016" fill="#fe807f" d="M 53.5,45.5 C 54.8333,46.1667 54.8333,46.1667 53.5,45.5 Z"/></g>
<g><path style="opacity:0.012" fill="#3c388c" d="M 0.5,45.5 C 0.833333,45.5 1.16667,45.5 1.5,45.5C 1.5,46.1667 1.5,46.8333 1.5,47.5C 0.661754,47.1583 0.32842,46.4916 0.5,45.5 Z"/></g>
<g><path style="opacity:0.004" fill="#ffd5bd" d="M 51.5,47.5 C 51.5,47.1667 51.5,46.8333 51.5,46.5C 52.1667,46.5 52.8333,46.5 53.5,46.5C 53.1583,47.3382 52.4916,47.6716 51.5,47.5 Z"/></g>
<g><path style="opacity:0.004" fill="#ffd5d2" d="M 51.5,47.5 C 51.1034,48.525 50.4368,48.6917 49.5,48C 50.0944,47.5357 50.7611,47.369 51.5,47.5 Z"/></g>
<g><path style="opacity:0.004" fill="#bf38d2" d="M 1.5,47.5 C 1.83333,47.5 2.16667,47.5 2.5,47.5C 2.16667,50.1667 1.83333,50.1667 1.5,47.5 Z"/></g>
<g><path style="opacity:0.012" fill="#ff9055" d="M 46.5,49.5 C 46.5,49.1667 46.5,48.8333 46.5,48.5C 49.1667,48.8333 49.1667,49.1667 46.5,49.5 Z"/></g>
<g><path style="opacity:0.008" fill="#ed7777" d="M 44.5,50.5 C 44.5,50.1667 44.5,49.8333 44.5,49.5C 45.1667,49.5 45.8333,49.5 46.5,49.5C 46.1583,50.3382 45.4916,50.6716 44.5,50.5 Z"/></g>
<g><path style="opacity:0.016" fill="#ff2948" d="M 41.5,51.5 C 41.5,51.1667 41.5,50.8333 41.5,50.5C 42.5,50.5 43.5,50.5 44.5,50.5C 43.791,51.404 42.791,51.7373 41.5,51.5 Z"/></g>
<g><path style="opacity:0.012" fill="#c55163" d="M 39.5,52.5 C 39.5,52.1667 39.5,51.8333 39.5,51.5C 40.1667,51.5 40.8333,51.5 41.5,51.5C 41.1583,52.3382 40.4916,52.6716 39.5,52.5 Z"/></g>
<g><path style="opacity:0.016" fill="#ff7481" d="M 36.5,53.5 C 36.5,53.1667 36.5,52.8333 36.5,52.5C 37.5,52.5 38.5,52.5 39.5,52.5C 38.791,53.404 37.791,53.7373 36.5,53.5 Z"/></g>
<g><path style="opacity:0.012" fill="#e9409b" d="M 34.5,54.5 C 34.5,54.1667 34.5,53.8333 34.5,53.5C 35.1667,53.5 35.8333,53.5 36.5,53.5C 36.1583,54.3382 35.4916,54.6716 34.5,54.5 Z"/></g>
<g><path style="opacity:0.008" fill="#8b6977" d="M 32.5,55.5 C 32.5,55.1667 32.5,54.8333 32.5,54.5C 33.1667,54.5 33.8333,54.5 34.5,54.5C 34.1583,55.3382 33.4916,55.6716 32.5,55.5 Z"/></g>
<g><path style="opacity:0.016" fill="#872954" d="M 29.5,56.5 C 29.5,56.1667 29.5,55.8333 29.5,55.5C 30.5,55.5 31.5,55.5 32.5,55.5C 31.791,56.404 30.791,56.7373 29.5,56.5 Z"/></g>
<g><path style="opacity:0.008" fill="#816b80" d="M 27.5,57.5 C 27.5,57.1667 27.5,56.8333 27.5,56.5C 28.1667,56.5 28.8333,56.5 29.5,56.5C 29.1583,57.3382 28.4916,57.6716 27.5,57.5 Z"/></g>
<g><path style="opacity:0.016" fill="#9e319e" d="M 24.5,58.5 C 24.5,58.1667 24.5,57.8333 24.5,57.5C 25.5,57.5 26.5,57.5 27.5,57.5C 26.791,58.404 25.791,58.7373 24.5,58.5 Z"/></g>
<g><path style="opacity:0.016" fill="#7a5082" d="M 24.5,58.5 C 21.6965,59.6378 18.6965,59.8045 15.5,59C 18.4816,58.502 21.4816,58.3354 24.5,58.5 Z"/></g>
</svg>
